<?xml version="1.0" encoding="utf-8"?>
<!-- Generator: Adobe Illustrator 16.0.0, SVG Export Plug-In . SVG Version: 6.00 Build 0)  -->
<!DOCTYPE svg PUBLIC "-//W3C//DTD SVG 1.1//EN" "http://www.w3.org/Graphics/SVG/1.1/DTD/svg11.dtd">
<svg version="1.1" id="Layer_1" xmlns="http://www.w3.org/2000/svg" xmlns:xlink="http://www.w3.org/1999/xlink" x="0px" y="0px"
	 width="50px" height="50px" viewBox="0 0 50 50" enable-background="new 0 0 50 50" xml:space="preserve">
<rect fill="#F2F2F2" width="50" height="50"/>
<polygon fill="#4D4D4D" points="0.016,24.328 10.132,17.75 31.217,29.268 39.839,24.357 50,30.359 50,50 0.006,50 "/>
<circle fill="#4D4D4D" cx="32" cy="16.5" r="5.75"/>
<g enable-background="new    ">
	<path fill="#F2F2F2" d="M22.96,34.823c0,0.154-0.02,0.296-0.059,0.425c-0.039,0.13-0.094,0.246-0.165,0.35
		c-0.07,0.104-0.155,0.194-0.255,0.271c-0.099,0.078-0.211,0.144-0.336,0.197c-0.125,0.053-0.258,0.092-0.4,0.118
		s-0.305,0.04-0.489,0.04H19.98c-0.058,0-0.113-0.02-0.164-0.059c-0.052-0.039-0.078-0.107-0.078-0.206v-4.357
		c0-0.099,0.026-0.167,0.078-0.206c0.051-0.039,0.106-0.059,0.164-0.059h1.11c0.292,0,0.531,0.027,0.718,0.083
		c0.186,0.056,0.342,0.136,0.466,0.241c0.125,0.106,0.218,0.236,0.281,0.39s0.094,0.327,0.094,0.521
		c0,0.116-0.014,0.227-0.042,0.333c-0.027,0.105-0.068,0.203-0.123,0.292c-0.054,0.09-0.122,0.17-0.204,0.24
		c-0.082,0.07-0.175,0.129-0.281,0.174c0.133,0.025,0.258,0.071,0.374,0.138s0.217,0.151,0.304,0.255
		c0.087,0.104,0.156,0.225,0.206,0.362C22.935,34.505,22.96,34.657,22.96,34.823z M21.982,32.637c0-0.118-0.016-0.225-0.049-0.321
		c-0.033-0.095-0.084-0.177-0.154-0.243s-0.162-0.117-0.275-0.153c-0.113-0.035-0.263-0.053-0.449-0.053h-0.67v1.583h0.738
		c0.168,0,0.304-0.022,0.407-0.066c0.103-0.044,0.188-0.104,0.256-0.178s0.118-0.161,0.149-0.261
		C21.966,32.846,21.982,32.742,21.982,32.637z M22.277,34.861c0-0.146-0.023-0.274-0.07-0.385c-0.046-0.111-0.114-0.204-0.204-0.28
		c-0.089-0.075-0.201-0.133-0.335-0.172s-0.303-0.059-0.507-0.059h-0.776v1.723h0.942c0.148,0,0.277-0.018,0.388-0.053
		c0.11-0.035,0.208-0.088,0.292-0.157c0.084-0.069,0.15-0.155,0.198-0.259C22.253,35.117,22.277,34.997,22.277,34.861z"/>
	<path fill="#F2F2F2" d="M24.569,31.583c0,0.146-0.027,0.246-0.083,0.299c-0.055,0.053-0.157,0.079-0.306,0.079
		c-0.146,0-0.246-0.025-0.3-0.077s-0.081-0.149-0.081-0.293c0-0.146,0.027-0.245,0.083-0.298c0.055-0.054,0.157-0.08,0.306-0.08
		c0.146,0,0.246,0.026,0.3,0.078C24.542,31.342,24.569,31.439,24.569,31.583z M24.498,36.13c0,0.021-0.005,0.037-0.015,0.052
		c-0.01,0.014-0.027,0.025-0.049,0.035c-0.022,0.011-0.054,0.018-0.094,0.022c-0.041,0.006-0.092,0.008-0.155,0.008
		c-0.061,0-0.111-0.002-0.151-0.008c-0.04-0.005-0.072-0.012-0.096-0.022c-0.024-0.01-0.041-0.021-0.049-0.035
		c-0.009-0.015-0.013-0.031-0.013-0.052v-3.398c0-0.018,0.004-0.034,0.013-0.049c0.009-0.016,0.025-0.028,0.049-0.038
		s0.056-0.018,0.096-0.022c0.041-0.005,0.091-0.008,0.151-0.008c0.063,0,0.114,0.003,0.155,0.008
		c0.04,0.005,0.072,0.013,0.094,0.022s0.039,0.022,0.049,0.038c0.01,0.015,0.015,0.031,0.015,0.049V36.13z"/>
	<path fill="#F2F2F2" d="M26.272,36.13c0,0.021-0.005,0.037-0.015,0.052c-0.011,0.014-0.027,0.025-0.05,0.035
		c-0.022,0.011-0.054,0.018-0.095,0.022c-0.04,0.006-0.092,0.008-0.154,0.008c-0.061,0-0.111-0.002-0.151-0.008
		c-0.04-0.005-0.072-0.012-0.097-0.022c-0.023-0.01-0.04-0.021-0.049-0.035c-0.009-0.015-0.014-0.031-0.014-0.052v-5.045
		c0-0.021,0.005-0.038,0.014-0.053c0.009-0.016,0.025-0.028,0.049-0.038c0.024-0.01,0.057-0.018,0.097-0.022
		s0.091-0.008,0.151-0.008c0.063,0,0.114,0.003,0.154,0.008c0.041,0.005,0.072,0.013,0.095,0.022s0.039,0.022,0.05,0.038
		c0.01,0.015,0.015,0.032,0.015,0.053V36.13z"/>
	<path fill="#F2F2F2" d="M30.336,36.13c0,0.021-0.005,0.038-0.014,0.053c-0.009,0.016-0.023,0.027-0.045,0.036
		s-0.05,0.016-0.085,0.021c-0.036,0.006-0.078,0.008-0.128,0.008c-0.054,0-0.098-0.002-0.133-0.008
		c-0.035-0.005-0.064-0.012-0.087-0.021s-0.039-0.021-0.05-0.036c-0.01-0.015-0.014-0.032-0.014-0.053v-0.449
		c-0.18,0.194-0.365,0.345-0.558,0.453s-0.403,0.162-0.633,0.162c-0.249,0-0.462-0.048-0.638-0.145
		c-0.177-0.098-0.319-0.229-0.43-0.394c-0.109-0.164-0.189-0.358-0.239-0.581s-0.075-0.458-0.075-0.704
		c0-0.292,0.031-0.556,0.094-0.792c0.063-0.235,0.156-0.436,0.279-0.602c0.124-0.166,0.277-0.294,0.459-0.384
		c0.184-0.089,0.394-0.134,0.633-0.134c0.199,0,0.381,0.043,0.546,0.13s0.328,0.215,0.489,0.384V31.1
		c0-0.018,0.004-0.034,0.014-0.051c0.008-0.017,0.025-0.029,0.051-0.038s0.057-0.016,0.096-0.022
		c0.039-0.006,0.089-0.009,0.149-0.009c0.063,0,0.114,0.003,0.155,0.009c0.039,0.007,0.071,0.014,0.094,0.022
		c0.023,0.009,0.039,0.021,0.051,0.038s0.018,0.033,0.018,0.051V36.13z M29.709,33.739c-0.169-0.209-0.332-0.368-0.489-0.478
		s-0.321-0.164-0.493-0.164c-0.158,0-0.293,0.038-0.404,0.113c-0.11,0.075-0.2,0.175-0.27,0.299
		c-0.069,0.123-0.119,0.263-0.15,0.419c-0.032,0.156-0.048,0.314-0.048,0.476c0,0.171,0.013,0.339,0.04,0.502
		c0.025,0.164,0.072,0.31,0.138,0.437s0.151,0.229,0.261,0.306c0.107,0.077,0.244,0.115,0.408,0.115
		c0.082,0,0.162-0.011,0.239-0.034c0.077-0.022,0.155-0.06,0.235-0.113c0.081-0.053,0.166-0.121,0.254-0.205
		c0.088-0.085,0.182-0.188,0.279-0.312V33.739z"/>
</g>
<g enable-background="new    ">
	<path fill="#F2F2F2" d="M17.192,44.486c0,0.174-0.032,0.328-0.096,0.465c-0.064,0.136-0.155,0.25-0.274,0.343
		c-0.118,0.094-0.259,0.164-0.423,0.212s-0.344,0.071-0.54,0.071c-0.121,0-0.236-0.009-0.346-0.028
		c-0.109-0.019-0.208-0.042-0.294-0.071s-0.161-0.06-0.221-0.091c-0.061-0.031-0.104-0.06-0.132-0.085s-0.048-0.061-0.061-0.105
		c-0.013-0.046-0.019-0.107-0.019-0.186c0-0.048,0.003-0.088,0.008-0.12c0.005-0.033,0.011-0.06,0.019-0.08
		c0.007-0.02,0.018-0.034,0.032-0.043c0.014-0.009,0.03-0.014,0.047-0.014c0.028,0,0.068,0.018,0.123,0.052
		c0.054,0.033,0.121,0.071,0.2,0.111c0.08,0.04,0.173,0.077,0.282,0.111c0.108,0.034,0.232,0.051,0.374,0.051
		c0.106,0,0.202-0.012,0.287-0.034s0.16-0.056,0.223-0.1s0.112-0.101,0.146-0.168c0.034-0.068,0.051-0.148,0.051-0.242
		c0-0.096-0.025-0.176-0.074-0.241c-0.049-0.065-0.114-0.124-0.195-0.174c-0.081-0.051-0.171-0.096-0.271-0.135
		c-0.101-0.038-0.205-0.079-0.312-0.122c-0.107-0.043-0.211-0.092-0.313-0.146c-0.102-0.055-0.193-0.12-0.274-0.198
		s-0.146-0.171-0.195-0.279c-0.049-0.108-0.073-0.238-0.073-0.39c0-0.133,0.025-0.261,0.077-0.383s0.129-0.229,0.232-0.321
		c0.103-0.092,0.232-0.165,0.387-0.221s0.335-0.083,0.542-0.083c0.091,0,0.182,0.008,0.272,0.022
		c0.091,0.016,0.172,0.034,0.246,0.057s0.135,0.047,0.187,0.073c0.052,0.027,0.091,0.05,0.117,0.07s0.044,0.038,0.053,0.053
		c0.009,0.016,0.015,0.032,0.019,0.051c0.003,0.02,0.007,0.043,0.011,0.07s0.005,0.062,0.005,0.102c0,0.043-0.001,0.08-0.005,0.111
		c-0.004,0.032-0.01,0.058-0.019,0.078c-0.009,0.02-0.02,0.034-0.032,0.043c-0.012,0.009-0.026,0.014-0.042,0.014
		c-0.022,0-0.055-0.014-0.098-0.042c-0.042-0.027-0.098-0.057-0.166-0.089c-0.068-0.031-0.148-0.061-0.24-0.089
		c-0.092-0.027-0.197-0.041-0.315-0.041c-0.106,0-0.199,0.012-0.279,0.036c-0.081,0.023-0.147,0.058-0.198,0.102
		c-0.052,0.044-0.091,0.097-0.117,0.156c-0.026,0.061-0.04,0.126-0.04,0.197c0,0.098,0.025,0.181,0.075,0.247
		s0.116,0.125,0.197,0.176c0.08,0.05,0.172,0.096,0.275,0.136s0.208,0.082,0.315,0.125c0.107,0.042,0.213,0.09,0.317,0.143
		c0.104,0.054,0.197,0.117,0.277,0.193c0.081,0.075,0.146,0.166,0.194,0.271C17.168,44.214,17.192,44.34,17.192,44.486z"/>
	<path fill="#F2F2F2" d="M20.644,45.415c0,0.03-0.01,0.053-0.03,0.068c-0.02,0.015-0.048,0.026-0.083,0.034
		c-0.035,0.007-0.087,0.011-0.155,0.011c-0.065,0-0.118-0.004-0.157-0.011c-0.039-0.008-0.067-0.02-0.085-0.034
		c-0.018-0.016-0.026-0.038-0.026-0.068v-0.34c-0.148,0.159-0.314,0.282-0.497,0.37s-0.376,0.132-0.58,0.132
		c-0.179,0-0.341-0.022-0.485-0.069c-0.145-0.047-0.268-0.114-0.37-0.202s-0.181-0.196-0.238-0.325
		c-0.057-0.128-0.085-0.274-0.085-0.438c0-0.191,0.039-0.357,0.117-0.499c0.078-0.141,0.19-0.258,0.336-0.351
		c0.146-0.094,0.325-0.163,0.536-0.21s0.449-0.069,0.714-0.069h0.468v-0.265c0-0.131-0.014-0.247-0.042-0.348
		c-0.028-0.101-0.073-0.185-0.134-0.251s-0.142-0.117-0.24-0.151s-0.219-0.051-0.362-0.051c-0.154,0-0.292,0.019-0.414,0.055
		c-0.123,0.037-0.229,0.077-0.321,0.121s-0.168,0.084-0.23,0.121c-0.062,0.036-0.107,0.055-0.138,0.055
		c-0.02,0-0.038-0.005-0.053-0.016c-0.015-0.01-0.028-0.025-0.04-0.045c-0.012-0.021-0.02-0.046-0.025-0.077
		c-0.005-0.032-0.007-0.066-0.007-0.104c0-0.063,0.004-0.112,0.013-0.149c0.009-0.036,0.03-0.07,0.064-0.104
		c0.034-0.032,0.093-0.071,0.176-0.115s0.179-0.084,0.287-0.121c0.108-0.036,0.227-0.066,0.355-0.09
		c0.128-0.024,0.258-0.036,0.389-0.036c0.244,0,0.452,0.027,0.623,0.083c0.171,0.056,0.31,0.137,0.415,0.243
		c0.106,0.107,0.183,0.24,0.23,0.398c0.048,0.159,0.072,0.344,0.072,0.556V45.415z M20.025,43.863h-0.533
		c-0.171,0-0.32,0.015-0.445,0.043c-0.126,0.029-0.23,0.072-0.313,0.129c-0.083,0.057-0.145,0.124-0.183,0.204
		c-0.039,0.079-0.059,0.17-0.059,0.273c0,0.176,0.056,0.316,0.168,0.421c0.112,0.104,0.269,0.157,0.47,0.157
		c0.164,0,0.315-0.042,0.455-0.125s0.286-0.21,0.44-0.382V43.863z"/>
	<path fill="#F2F2F2" d="M24.579,45.407c0,0.021-0.005,0.038-0.015,0.054c-0.01,0.015-0.027,0.027-0.051,0.037
		c-0.024,0.011-0.058,0.018-0.1,0.022c-0.043,0.006-0.097,0.008-0.163,0.008c-0.068,0-0.124-0.002-0.168-0.006
		c-0.044-0.003-0.081-0.01-0.111-0.019s-0.055-0.021-0.074-0.038c-0.019-0.016-0.036-0.035-0.051-0.059l-1.435-1.88v1.884
		c0,0.021-0.005,0.037-0.015,0.052c-0.01,0.014-0.027,0.025-0.049,0.035c-0.022,0.011-0.054,0.018-0.094,0.022
		c-0.041,0.006-0.092,0.008-0.155,0.008c-0.061,0-0.111-0.002-0.151-0.008c-0.04-0.005-0.072-0.012-0.096-0.022
		c-0.024-0.01-0.041-0.021-0.049-0.035c-0.009-0.015-0.013-0.031-0.013-0.052v-5.045c0-0.021,0.004-0.038,0.013-0.053
		c0.009-0.016,0.025-0.028,0.049-0.038s0.056-0.018,0.096-0.022c0.041-0.005,0.091-0.008,0.151-0.008
		c0.063,0,0.114,0.003,0.155,0.008c0.04,0.005,0.072,0.013,0.094,0.022s0.039,0.022,0.049,0.038c0.01,0.015,0.015,0.032,0.015,0.053
		v3.074l1.284-1.413c0.02-0.024,0.042-0.046,0.064-0.062c0.022-0.017,0.049-0.03,0.081-0.042c0.031-0.012,0.068-0.019,0.111-0.022
		s0.094-0.006,0.155-0.006c0.063,0,0.116,0.002,0.159,0.006s0.078,0.01,0.104,0.019s0.045,0.021,0.057,0.034
		s0.017,0.032,0.017,0.055c0,0.03-0.008,0.061-0.025,0.091c-0.016,0.03-0.043,0.065-0.081,0.105l-1.231,1.231l1.382,1.794
		c0.033,0.043,0.056,0.077,0.07,0.104C24.572,45.36,24.579,45.385,24.579,45.407z"/>
	<path fill="#F2F2F2" d="M28.23,45.411c0,0.021-0.004,0.037-0.015,0.052c-0.01,0.014-0.026,0.025-0.049,0.035
		c-0.022,0.011-0.054,0.018-0.095,0.022c-0.04,0.006-0.09,0.008-0.15,0.008c-0.063,0-0.115-0.002-0.155-0.008
		c-0.04-0.005-0.071-0.012-0.095-0.022c-0.022-0.01-0.039-0.021-0.049-0.035c-0.01-0.015-0.016-0.031-0.016-0.052v-1.99
		c0-0.193-0.015-0.35-0.045-0.468c-0.029-0.118-0.074-0.221-0.132-0.306c-0.058-0.086-0.133-0.151-0.225-0.197
		c-0.093-0.045-0.198-0.067-0.319-0.067c-0.156,0-0.313,0.056-0.469,0.166s-0.319,0.273-0.49,0.487v2.375
		c0,0.021-0.006,0.037-0.016,0.052c-0.01,0.014-0.026,0.025-0.049,0.035c-0.022,0.011-0.055,0.018-0.094,0.022
		c-0.041,0.006-0.093,0.008-0.155,0.008c-0.061,0-0.11-0.002-0.151-0.008c-0.04-0.005-0.072-0.012-0.096-0.022
		c-0.024-0.01-0.041-0.021-0.049-0.035c-0.009-0.015-0.013-0.031-0.013-0.052v-3.398c0-0.021,0.004-0.037,0.012-0.051
		c0.007-0.014,0.022-0.026,0.045-0.038c0.023-0.012,0.052-0.019,0.087-0.022s0.082-0.006,0.14-0.006
		c0.055,0,0.102,0.002,0.138,0.006s0.064,0.011,0.085,0.022c0.02,0.012,0.035,0.024,0.043,0.038c0.01,0.014,0.014,0.03,0.014,0.051
		v0.449c0.191-0.214,0.382-0.371,0.572-0.47c0.189-0.1,0.382-0.149,0.576-0.149c0.227,0,0.417,0.038,0.572,0.115
		c0.154,0.076,0.279,0.18,0.375,0.308s0.164,0.279,0.206,0.451c0.042,0.173,0.062,0.38,0.062,0.621V45.411z"/>
	<path fill="#F2F2F2" d="M31.928,45.415c0,0.03-0.01,0.053-0.029,0.068c-0.021,0.015-0.049,0.026-0.084,0.034
		c-0.035,0.007-0.086,0.011-0.154,0.011c-0.065,0-0.117-0.004-0.156-0.011c-0.039-0.008-0.068-0.02-0.086-0.034
		c-0.018-0.016-0.025-0.038-0.025-0.068v-0.34c-0.148,0.159-0.314,0.282-0.497,0.37s-0.376,0.132-0.579,0.132
		c-0.18,0-0.342-0.022-0.486-0.069s-0.268-0.114-0.369-0.202c-0.103-0.088-0.182-0.196-0.238-0.325
		c-0.057-0.128-0.085-0.274-0.085-0.438c0-0.191,0.038-0.357,0.116-0.499c0.078-0.141,0.191-0.258,0.337-0.351
		c0.146-0.094,0.325-0.163,0.536-0.21s0.449-0.069,0.714-0.069h0.468v-0.265c0-0.131-0.014-0.247-0.041-0.348
		s-0.072-0.185-0.135-0.251c-0.061-0.066-0.141-0.117-0.239-0.151s-0.22-0.051-0.362-0.051c-0.154,0-0.291,0.019-0.414,0.055
		c-0.122,0.037-0.229,0.077-0.32,0.121s-0.169,0.084-0.23,0.121c-0.063,0.036-0.107,0.055-0.139,0.055
		c-0.02,0-0.037-0.005-0.053-0.016c-0.015-0.01-0.027-0.025-0.039-0.045c-0.012-0.021-0.02-0.046-0.025-0.077
		c-0.004-0.032-0.007-0.066-0.007-0.104c0-0.063,0.005-0.112,0.013-0.149c0.01-0.036,0.031-0.07,0.064-0.104
		c0.034-0.032,0.093-0.071,0.176-0.115s0.179-0.084,0.287-0.121c0.108-0.036,0.227-0.066,0.355-0.09
		c0.128-0.024,0.258-0.036,0.389-0.036c0.244,0,0.451,0.027,0.623,0.083c0.171,0.056,0.31,0.137,0.415,0.243
		c0.106,0.107,0.183,0.24,0.23,0.398c0.048,0.159,0.071,0.344,0.071,0.556V45.415z M31.309,43.863h-0.532
		c-0.171,0-0.319,0.015-0.445,0.043c-0.126,0.029-0.23,0.072-0.313,0.129c-0.084,0.057-0.145,0.124-0.184,0.204
		c-0.039,0.079-0.059,0.17-0.059,0.273c0,0.176,0.057,0.316,0.168,0.421c0.112,0.104,0.27,0.157,0.471,0.157
		c0.164,0,0.315-0.042,0.455-0.125s0.286-0.21,0.439-0.382V43.863z"/>
	<path fill="#F2F2F2" d="M35.207,44.486c0,0.174-0.033,0.328-0.097,0.465c-0.063,0.136-0.155,0.25-0.274,0.343
		c-0.117,0.094-0.259,0.164-0.422,0.212c-0.164,0.048-0.344,0.071-0.541,0.071c-0.12,0-0.235-0.009-0.346-0.028
		c-0.109-0.019-0.207-0.042-0.294-0.071s-0.161-0.06-0.221-0.091c-0.061-0.031-0.104-0.06-0.132-0.085
		c-0.028-0.025-0.049-0.061-0.061-0.105c-0.014-0.046-0.02-0.107-0.02-0.186c0-0.048,0.003-0.088,0.008-0.12
		c0.005-0.033,0.012-0.06,0.02-0.08c0.007-0.02,0.018-0.034,0.031-0.043s0.029-0.014,0.047-0.014c0.028,0,0.068,0.018,0.123,0.052
		c0.055,0.033,0.121,0.071,0.2,0.111s0.173,0.077,0.282,0.111c0.107,0.034,0.232,0.051,0.373,0.051c0.105,0,0.201-0.012,0.287-0.034
		s0.16-0.056,0.223-0.1s0.111-0.101,0.146-0.168c0.034-0.068,0.052-0.148,0.052-0.242c0-0.096-0.025-0.176-0.074-0.241
		s-0.114-0.124-0.195-0.174c-0.08-0.051-0.17-0.096-0.271-0.135c-0.101-0.038-0.204-0.079-0.312-0.122
		c-0.106-0.043-0.212-0.092-0.313-0.146c-0.102-0.055-0.193-0.12-0.273-0.198s-0.146-0.171-0.195-0.279
		c-0.049-0.108-0.072-0.238-0.072-0.39c0-0.133,0.025-0.261,0.076-0.383c0.053-0.122,0.129-0.229,0.232-0.321
		s0.232-0.165,0.388-0.221s0.335-0.083,0.542-0.083c0.09,0,0.182,0.008,0.271,0.022c0.091,0.016,0.172,0.034,0.246,0.057
		c0.072,0.022,0.135,0.047,0.187,0.073c0.052,0.027,0.091,0.05,0.117,0.07s0.044,0.038,0.053,0.053
		c0.009,0.016,0.015,0.032,0.019,0.051c0.004,0.02,0.008,0.043,0.012,0.07s0.006,0.062,0.006,0.102c0,0.043-0.002,0.08-0.006,0.111
		c-0.004,0.032-0.01,0.058-0.02,0.078c-0.008,0.02-0.02,0.034-0.031,0.043c-0.013,0.009-0.027,0.014-0.042,0.014
		c-0.022,0-0.056-0.014-0.099-0.042c-0.042-0.027-0.098-0.057-0.166-0.089c-0.067-0.031-0.147-0.061-0.239-0.089
		c-0.092-0.027-0.197-0.041-0.315-0.041c-0.105,0-0.199,0.012-0.279,0.036c-0.08,0.023-0.146,0.058-0.198,0.102
		s-0.091,0.097-0.117,0.156c-0.026,0.061-0.04,0.126-0.04,0.197c0,0.098,0.025,0.181,0.076,0.247
		c0.05,0.066,0.115,0.125,0.196,0.176c0.08,0.05,0.173,0.096,0.275,0.136s0.208,0.082,0.315,0.125
		c0.107,0.042,0.213,0.09,0.317,0.143c0.104,0.054,0.196,0.117,0.277,0.193c0.081,0.075,0.146,0.166,0.194,0.271
		S35.207,44.34,35.207,44.486z"/>
</g>
</svg>
